<svg width="56" height="51" viewBox="0 0 56 51" fill="none" xmlns="http://www.w3.org/2000/svg">
	<path d="M40.7507 38.9991H47.0874C49.4572 38.9991 51.1058 37.9172 51.1058 35.7019C51.1058 33.4867 49.4572 32.4048 47.0874 32.4048H40.7507V38.9991ZM40.7507 50.4876H49.1996C53.6817 50.4876 56 48.1693 56 43.6872V38.9991H55.8454C54.5575 42.9144 51.2088 44.0994 47.2419 44.0994H40.9568C40.8022 44.0994 40.7507 44.1509 40.7507 44.3054V50.4876ZM28.85 35.7019L35.3413 41.9871V29.4167L28.85 35.7019ZM6.80037 50.4876H35.3413V49.0451C35.3413 46.5207 36.2171 45.0782 38.2263 44.3054V44.1509H30.241C29.8289 44.1509 29.6743 44.0994 29.3652 43.7902L25.1923 39.4627L20.8648 43.8418C20.6587 44.0478 20.5041 44.1509 20.092 44.1509H13.6523C13.2916 44.1509 13.2916 43.9448 13.4977 43.7387L21.7406 35.7535L13.3431 27.6136C13.1371 27.4075 13.1886 27.2015 13.5492 27.2015H20.0405C20.4011 27.2015 20.5557 27.253 20.7617 27.5106L25.2953 32.0442L29.5713 27.5106C29.7774 27.3045 29.9319 27.2015 30.241 27.2015H47.1904C51.1058 27.2015 54.5575 28.4894 55.8454 32.4048H56V6.80037C56 2.31831 53.6817 0 49.1996 0H6.80037C2.31831 0 0 2.31831 0 6.80037V43.7387C0 48.1693 2.31831 50.4876 6.80037 50.4876Z" fill="white"/>
</svg>
